<?xml version="1.0" ?><svg data-name="Layer 1" id="Layer_1" viewBox="0 0 128 128" xmlns="http://www.w3.org/2000/svg"><defs><style>.cls-1{fill:none;stroke:#062b31;stroke-miterlimit:10;stroke-width:6.5px;}</style></defs><title/><path class="cls-1" d="M42.39,57.54V93.3s1.69,24.2,32.27,24.2c12.47,0,18.56-4.53,20.31-6.12a1.35,1.35,0,0,0,.43-1.24C94.94,107.64,93.2,99,90,93a1.36,1.36,0,0,0-1.9-.5c-1.16.69-3.42,1.52-7.53,1.52a8.77,8.77,0,0,1-8.61-6.26V57.54H90.52a1.36,1.36,0,0,0,1.36-1.36V37.1a1.36,1.36,0,0,0-1.36-1.36H71.94V10.86A1.36,1.36,0,0,0,70.59,9.5h-18a1.36,1.36,0,0,0-1.35,1.26c-.36,4.65-2.84,20.93-19.73,27A1.36,1.36,0,0,0,30.59,39V56.18a1.36,1.36,0,0,0,1.36,1.36Z"/></svg>